<?xml version="1.0"?>
<svg width="278" height="208" xmlns="http://www.w3.org/2000/svg" xmlns:svg="http://www.w3.org/2000/svg" xmlns:xlink="http://www.w3.org/1999/xlink">
 <g class="layer">
  <title>Layer 1</title>
  <g id="svg_1">
   <g id="svg_2">
    <path d="m5.395,48.877l0,-45.231l14.655,0c5.554,0 9.173,0.227 10.86,0.679c2.592,0.679 4.762,2.155 6.51,4.428c1.748,2.273 2.622,5.209 2.622,8.809c0,2.777 -0.504,5.111 -1.512,7.003c-1.008,1.893 -2.288,3.378 -3.841,4.458c-1.553,1.08 -3.131,1.795 -4.736,2.144c-2.18,0.432 -5.337,0.648 -9.472,0.648l-5.955,0l0,17.063l-9.131,0l0,-0.001zm9.132,-37.579l0,12.835l4.999,0c3.599,0 6.006,-0.236 7.22,-0.71c1.213,-0.473 2.165,-1.213 2.854,-2.221c0.688,-1.008 1.033,-2.18 1.033,-3.518c0,-1.645 -0.483,-3.002 -1.45,-4.072c-0.967,-1.069 -2.19,-1.738 -3.671,-2.005c-1.09,-0.206 -3.281,-0.309 -6.572,-0.309l-4.413,0z" id="svg_3"/>
    <path d="m83.653,48.877l-9.935,0l-3.949,-10.275l-18.08,0l-3.733,10.275l-9.688,0l17.617,-45.231l9.657,0l18.111,45.231zm-16.815,-17.895l-6.232,-16.784l-6.109,16.784l12.341,0z" id="svg_4"/>
    <path d="m94.625,48.877l0,-19.037l-16.568,-26.194l10.706,0l10.645,17.895l10.429,-17.895l10.521,0l-16.63,26.256l0,18.975l-9.103,0z" id="svg_5"/>
   </g>
   <g id="svg_6">
    <path d="m124.827,48.877l0,-45.231l33.538,0l0,7.652l-24.405,0l0,10.027l22.708,0l0,7.621l-22.708,0l0,12.311l25.269,0l0,7.621l-34.402,0l0,-0.001z" fill="#64B3DF" id="svg_7"/>
    <path d="m166.972,48.877l0,-45.231l33.538,0l0,7.652l-24.405,0l0,10.027l22.708,0l0,7.621l-22.708,0l0,12.311l25.269,0l0,7.621l-34.402,0l0,-0.001z" fill="#64B3DF" id="svg_8"/>
    <path d="m209.148,48.877l0,-45.231l19.222,0c4.833,0 8.346,0.406 10.536,1.219c2.19,0.813 3.944,2.258 5.261,4.335c1.316,2.078 1.975,4.454 1.975,7.127c0,3.394 -0.998,6.197 -2.993,8.408c-1.995,2.211 -4.978,3.605 -8.947,4.181c1.975,1.152 3.604,2.417 4.891,3.795c1.285,1.378 3.019,3.826 5.198,7.343l5.523,8.824l-10.923,0l-6.603,-9.842c-2.345,-3.518 -3.949,-5.734 -4.813,-6.65c-0.864,-0.915 -1.779,-1.542 -2.746,-1.882s-2.499,-0.509 -4.598,-0.509l-1.851,0l0,18.883l-9.132,0l0,-0.001zm9.133,-26.102l6.757,0c4.381,0 7.116,-0.185 8.207,-0.555c1.09,-0.37 1.943,-1.007 2.561,-1.913c0.617,-0.905 0.926,-2.036 0.926,-3.394c0,-1.522 -0.406,-2.751 -1.219,-3.687s-1.959,-1.527 -3.44,-1.774c-0.74,-0.103 -2.962,-0.154 -6.664,-0.154l-7.127,0l0,11.477l-0.001,0z" fill="#64B3DF" id="svg_9"/>
   </g>
   <path d="m275.658,36.243c0,3.489 -1.229,6.466 -3.686,8.933c-2.458,2.468 -5.427,3.703 -8.913,3.703s-6.449,-1.235 -8.896,-3.703c-2.435,-2.458 -3.651,-5.436 -3.651,-8.933c0,-3.464 1.23,-6.42 3.685,-8.877c2.448,-2.445 5.4,-3.668 8.862,-3.668c3.486,0 6.455,1.223 8.913,3.668c2.458,2.445 3.686,5.407 3.686,8.877l0,0zm-12.598,-10.832c-2.982,0 -5.529,1.063 -7.646,3.188c-2.101,2.116 -3.153,4.667 -3.153,7.663c0,3.017 1.046,5.588 3.137,7.715c2.105,2.124 4.655,3.187 7.662,3.187c3.006,0 5.557,-1.063 7.661,-3.187c2.105,-2.127 3.154,-4.698 3.154,-7.715c0,-2.996 -1.049,-5.547 -3.154,-7.663c-2.111,-2.126 -4.669,-3.188 -7.661,-3.188l0,0zm-0.242,3.891c1.716,0 2.974,0.165 3.772,0.496c1.43,0.596 2.143,1.762 2.143,3.503c0,1.233 -0.45,2.146 -1.348,2.728c-0.476,0.309 -1.141,0.528 -1.999,0.665c1.084,0.172 1.872,0.625 2.373,1.359c0.5,0.727 0.751,1.438 0.751,2.138l0,1.008c0,0.322 0.009,0.665 0.033,1.029c0.024,0.362 0.066,0.604 0.12,0.72l0.086,0.171l-2.279,0c-0.014,-0.048 -0.021,-0.093 -0.035,-0.137c-0.014,-0.048 -0.02,-0.097 -0.034,-0.158l-0.051,-0.442l0,-1.094c0,-1.593 -0.436,-2.646 -1.304,-3.159c-0.513,-0.295 -1.416,-0.447 -2.708,-0.447l-1.919,0l0,5.438l-2.434,0l0,-13.818l4.833,0zm3.55,4.198c0,-1 -0.309,-1.681 -0.919,-2.021c-0.614,-0.343 -1.599,-0.515 -2.948,-0.515l-2.081,0l0,5.003l2.2,0c1.032,0 1.807,-0.103 2.321,-0.309c0.951,-0.375 1.427,-1.096 1.427,-2.158l0,0z" id="svg_10"/>
   <text font-family="&#x27;Helvetica&#x27;" font-size="38.6146" id="svg_11" transform="matrix(1 0 0 1 276.0166 48.8774)"/>
  </g>
  <use id="svg_13" transform="matrix(0.116842 0 0 0.116842 -240.543 -160.029)" x="2400.745239" xlink:href="#svg_12" y="1906.172454"/>
  <g id="svg_14"/>
 </g>
 <defs>
  <symbol height="960.000000pt" id="svg_12" preserveAspectRatio="xMidYMid meet" viewBox="0 0 1280.000000 960.000000" width="1280.000000pt" xmlns="http://www.w3.org/2000/svg">
   <metadata>Created by potrace 1.15, written by Peter Selinger 2001-2017</metadata>
   <g fill="#ff9800" transform="translate(0.000000,960.000000) scale(0.100000,-0.100000)">
    <path d="m6377,9244c-1,-1 -81,-5 -177,-9c-96,-4 -188,-8 -205,-10c-68,-6 -154,-16 -210,-25c-222,-37 -311,-52 -317,-56c-6,-4 -93,-23 -133,-29c-21,-3 -298,-82 -325,-92c-8,-4 -17,-7 -20,-8c-3,-1 -14,-5 -25,-9c-11,-4 -54,-20 -95,-36c-41,-15 -86,-31 -100,-35c-24,-7 -51,-19 -200,-87c-91,-41 -262,-129 -340,-173c-36,-21 -85,-49 -110,-63c-74,-42 -155,-95 -158,-104c-2,-4 -8,-8 -14,-8c-6,0 -27,-13 -48,-30c-21,-16 -43,-30 -49,-30c-6,0 -11,-3 -11,-7c-1,-5 -24,-24 -51,-43c-280,-195 -654,-552 -869,-830c-19,-25 -37,-47 -40,-50c-16,-14 -230,-322 -259,-373c-10,-18 -51,-87 -90,-155c-285,-492 -493,-1127 -550,-1682c-6,-58 -13,-123 -16,-145c-11,-95 -15,-542 -5,-670c23,-311 95,-718 166,-936c8,-25 16,-54 18,-65c18,-83 160,-450 235,-606c242,-499 522,-891 908,-1268c170,-167 192,-187 328,-296c676,-543 1450,-863 2321,-961c196,-22 692,-24 889,-5c886,89 1718,435 2405,1001c172,142 407,375 581,578c15,16 69,86 121,154c512,670 817,1451 899,2299c14,150 19,532 8,690c-20,306 -71,599 -164,945c-8,33 -17,65 -18,72c-2,7 -6,16 -10,19c-4,4 -7,14 -7,22c0,15 -79,239 -105,297c-7,17 -23,54 -35,84c-46,118 -167,363 -228,465c-23,37 -42,69 -42,71c0,8 -166,268 -192,300c-4,6 -36,48 -70,94c-115,153 -142,188 -234,293c-113,128 -349,362 -444,438c-190,154 -231,187 -250,200c-12,8 -29,21 -37,29c-8,8 -42,32 -76,54c-34,22 -64,42 -67,46c-3,3 -21,15 -40,25c-19,11 -48,30 -63,43c-16,13 -33,23 -38,23c-5,0 -28,12 -50,26c-23,14 -62,37 -87,51c-26,14 -49,30 -52,34c-3,5 -15,10 -25,12c-11,1 -31,10 -45,19c-41,27 -372,184 -420,199c-14,4 -50,17 -80,29c-82,32 -201,71 -235,77c-16,3 -32,8 -35,12c-3,5 -16,11 -30,14c-14,3 -70,17 -124,31c-106,28 -127,33 -221,51c-11,2 -21,4 -22,5c-5,4 -94,21 -128,25c-5,1 -26,4 -45,8c-79,15 -274,37 -410,47c-125,9 -328,17 -333,14zm443,-459c356,-39 632,-102 953,-219c1069,-387 1950,-1238 2366,-2284c75,-188 172,-501 195,-628c3,-13 7,-32 10,-42c3,-9 7,-35 11,-57c3,-22 7,-47 10,-55c7,-23 33,-213 46,-330c14,-134 20,-533 9,-670c-17,-204 -24,-257 -66,-480c-32,-169 -106,-453 -134,-515c-5,-11 -18,-47 -29,-80c-76,-228 -243,-565 -404,-817c-34,-54 -69,-106 -77,-115c-8,-10 -33,-43 -55,-73c-65,-90 -143,-189 -213,-269c-130,-150 -429,-435 -538,-514c-18,-12 -67,-49 -110,-82c-148,-112 -399,-269 -519,-326c-38,-18 -72,-36 -75,-39c-23,-28 -528,-230 -573,-230c-9,0 -17,-5 -17,-12c0,-6 -2,-9 -6,-6c-3,3 -26,-1 -52,-9c-56,-17 -179,-52 -207,-58c-11,-3 -40,-9 -65,-15c-49,-11 -207,-39 -255,-46c-16,-2 -52,-8 -80,-13c-87,-17 -296,-31 -490,-34c-221,-3 -461,13 -655,43c-254,40 -534,107 -690,165c-237,87 -511,204 -530,226c-3,3 -21,11 -40,19c-32,12 -93,45 -173,94c-18,11 -41,24 -52,30c-11,7 -53,34 -94,61c-40,28 -84,57 -97,65c-86,56 -322,239 -399,310c-38,35 -165,153 -189,176c-22,21 -191,207 -211,231c-11,14 -42,54 -70,88c-220,274 -387,546 -533,865c-176,386 -268,733 -337,1270c-12,99 -13,588 0,725c76,830 387,1578 929,2235c90,110 365,385 481,482c677,566 1449,880 2335,948c152,12 521,4 690,-15z"/>
    <path d="m5707,7864c-1,-1 -43,-4 -94,-8c-51,-3 -99,-9 -108,-12c-38,-15 -40,-39 -43,-444c-2,-265 -6,-402 -14,-417c-22,-43 -42,-45 -560,-47c-271,-2 -500,-6 -510,-10c-31,-14 -38,-59 -41,-241c-4,-221 5,-389 22,-409c10,-12 56,-15 259,-18c233,-3 250,-4 297,-26c64,-30 91,-55 123,-117l25,-50l1,-1194c1,-657 -2,-1237 -6,-1289c-6,-93 -7,-95 -45,-129c-63,-58 -72,-60 -351,-67c-114,-3 -178,-9 -188,-17c-22,-18 -63,-188 -88,-369c-3,-19 -12,-78 -21,-130c-22,-136 -20,-206 4,-220c13,-6 192,-10 513,-10c424,0 557,-5 573,-22c2,-1 5,-196 7,-433c3,-317 7,-436 16,-453l13,-22l283,0c215,0 286,3 293,12c20,25 24,107 24,462c-1,199 2,375 5,393c4,23 14,34 33,41c35,12 307,2 325,-12c12,-9 15,-81 19,-426c2,-283 7,-424 15,-442l12,-28l284,0c251,0 285,2 297,17c11,13 15,103 19,454c3,240 8,440 12,444c6,6 113,21 278,39c297,31 574,106 774,209c435,223 639,613 623,1192c-4,173 -21,280 -56,360c-5,11 -19,46 -31,77c-42,109 -154,252 -255,326c-27,20 -53,41 -57,47c-4,5 -8,6 -8,1c0,-5 -9,-1 -19,8c-22,20 -131,78 -131,70c0,-3 -15,3 -32,14c-18,12 -37,20 -41,20c-12,0 -57,35 -57,45c0,5 40,49 90,97c184,181 261,358 276,633c14,249 -56,507 -184,679c-51,69 -152,164 -227,215c-61,41 -194,113 -217,117c-7,1 -31,10 -53,20c-111,49 -383,113 -507,119c-21,1 -38,5 -38,10c0,4 -13,7 -29,7c-48,0 -77,16 -94,53c-15,31 -17,83 -18,414c0,277 -4,387 -13,413c-13,35 -14,35 -87,43c-41,5 -165,6 -277,4c-226,-4 -227,-4 -242,-73c-5,-21 -9,-200 -10,-397c0,-225 -4,-365 -10,-377c-6,-11 -20,-25 -33,-31c-29,-16 -253,-20 -285,-6c-49,23 -51,36 -52,441c0,383 -4,418 -39,431c-9,4 -63,8 -121,11c-142,7 -221,9 -223,8zm973,-1655c142,-13 318,-58 408,-103c190,-95 281,-266 253,-470c-12,-83 -26,-117 -77,-184c-36,-47 -112,-112 -131,-112c-7,0 -13,-3 -13,-8c0,-14 -154,-77 -212,-87c-18,-3 -51,-11 -73,-16c-57,-16 -69,-18 -149,-25c-39,-3 -75,-9 -80,-11c-4,-3 -104,-7 -220,-9l-212,-4l-32,28l-32,27l-1,445c0,245 0,462 0,483c1,29 6,40 24,47c31,12 409,12 547,-1zm85,-1679c508,-44 779,-198 835,-475c14,-68 7,-166 -17,-240c-20,-63 -34,-86 -100,-161c-22,-25 -122,-93 -178,-121c-63,-32 -229,-85 -305,-97c-19,-3 -46,-8 -60,-11c-56,-11 -78,-14 -150,-19c-41,-3 -111,-9 -155,-13c-131,-11 -459,-7 -483,6c-12,6 -27,21 -33,33c-13,24 -15,1077 -2,1089c5,4 19,9 33,12c51,9 499,6 615,-3z"/>
   </g>
  </symbol>
 </defs>
</svg>